<svg xmlns="http://www.w3.org/2000/svg" width="593.303" height="745.334" viewBox="0 0 156.978 197.203"><path d="M98.096 173.971c-48.832-48.704-74.246-7.15-78.43-13.34-2.74-4.057 27.808-63.33 65.389-82.412 21.434 21.07 18.154 66.97 13.04 95.752z" fill="#6c2221" stroke="#000" stroke-width="2"/><path d="M80.64 75.85c-9.544 24.931-35.153 68.212-42.517 89.559 4.633 11.272 35.352 20.864 45.432 9.354 9.685-14.585 10.12-65.384 6.55-93.65-3.298-2.828-8.518-5.146-9.464-5.264" fill="#559bbe" stroke="#000" stroke-width="2"/><path d="M39.128 165.167c1.13 3.293 6.898 7.298 8.666 8.115-2.702-4.04 14.431-46.328 29.204-65.913 15.053-18.314 7.862 47.38-.234 70.54 2.893-1.037 5.39-2.267 7.09-5.447 7.89-14.763 8.815-58.518 4.6-99.907-18.043 29.985-36.023 59.384-49.326 92.612z" fill="#4883a1"/><path d="M93.978 185.998c7.074-24.94 11.48-89.321-8.923-107.779-7.068 29.243-32.162 46.444-42.842 61.605-10.68 15.16-12.427 53.568-10.518 56.607-9.785-8.062-27.092-13.327-30.658-29.385C-3.59 151.842 60.729 94.334 80.64 75.85c30.995 4.598 29.849 76.834 13.337 110.149" fill="#e6655e" stroke="#000" stroke-width="2"/><path d="M76.38 96.77c-4.217-3.37.903-10.933-8.359-5.844-2.278 6.682-46.117 39.207-47.32 53.415-1.205 14.207.547 17.196 6.274 13.793 5.726-3.403 12.87-16.707 12.87-16.707-4.989 12.938-10.118 25.98-9.707 52.525-10.687-7.125-24.402-12.877-28.348-27.706 5.005-25.427 61.279-70 78.85-90.397l3.046 6.415z" fill="#d25d56"/><path d="M154.058 51.868c-16.806-5.035-33.834-11.476-46.789-14.77-48.548-12.343-54.124 45.97-8.636 47.19 72.916-2.209 55.425-32.42 55.425-32.42z" fill="#e9e6d0" stroke="#000" stroke-width="2"/><path d="M69.756 51.371c-1.677 26.026 33.436 30.474 63.682 24 .993 2.95.816.32 2.446 3.083-6.666 1.75-24.414 4.93-37.22 4.817-7.245-.065-14.368-2.996-21.145-6.595-8.486-5.831-11.133-19.014-7.763-25.305z" fill="#aba898"/><path d="M103.08 35.635C65.127 45.886 79.358 79.264 79.362 79.272c.446 2.922 18.683 7.065 19.271 5.016-9.072-12.562 3.809-36.858 20.153-43.665 1.649-2.676-12.474-6.194-15.706-4.988z" stroke="#000" stroke-width="2"/><path d="M142.988 48.345c-18.969 3.986-13.311 26.102-9.631 31.448 14.085-3.32 27.85-13.748 20.701-27.925z" fill="#2c2c2c" stroke="#000" stroke-width="2"/><path d="M135.081 53.954c1.891-3.31 3.499-3.165 7.01-4.653 3.93.448 7.083 1.89 11.012 3.298 1.11.484 2.574 3.984 1.906 6.95-6.574-2.647-12.93-5.354-19.928-5.595z" fill="#bbb"/><g><path d="M69.361 49.795C53.395 33.798 33.218 34.101 38.175 28.444c7.032-9.955 34.003 16.472 33.842 16.846z" fill="#e9e6d0" stroke="#000" stroke-width="1.948"/><path fill="#e9e6d0" d="M70.62 45.14l3.528 3.611-3.206 1.252-3.528-3.612z"/><path d="M39.072 28.988c10.77 4.045 22.585 8.805 32.778 19.183l-1.258 1.459c-4.642-4.704-15.099-11.19-16.886-11.951-12.807-5.46-17.32-6.47-14.634-8.691z" fill="#aba898"/></g><g><path d="M89.058 35.832C84.67 13.042 67.682 3.4 75.138 1.365c11.684-4.54 19.492 33.719 19.14 33.948z" fill="#e9e6d0" stroke="#000" stroke-width="2"/><rect width="3.993" height="3.397" x="98.294" y="-111.261" transform="matrix(.14446 .98951 -.9581 .28644 -27.736 -31.785)" ry="0" fill="#e9e6d0"/><path d="M75.35 2.35c6.805 9.275 13.847 19.933 16.707 34.196l-1.929.168c-1.315-6.477-6.198-17.471-7.278-19.087C75.113 6.053 71.886 2.741 75.35 2.35z" fill="#aba898"/></g><g><path d="M105.598 45.775c-1.17-3.298-1.669-6.895-.118-7.784 2.985-.418 5.467 2.862 5.467 2.862-.81 1.652-2.73 3.625-5.349 4.922z" fill="#fff"/></g><g><path d="M87.168 47.952c5.713-2.352 10.89-1.164 16.313-.59-.972 2.68-3.828 5-7.64 7.74-4.94.791-9.238-3.284-8.673-7.15z" fill="#fff"/></g></svg>