<?xml version="1.0" encoding="UTF-8" standalone="no"?>
<svg
   width="252.75327mm"
   height="197.20331mm"
   viewBox="0 0 252.75327 197.20331"
   version="1.1"
   id="svg1490"
   inkscape:version="1.4.2 (ebf0e940, 2025-05-08)"
   sodipodi:docname="Logo+Mascot-v3.svg"
   inkscape:export-filename="/Users/vfinet/Devs//build/src/logos/build/src/logos/Logo+Macot-v3.png"
   inkscape:export-xdpi="1000"
   inkscape:export-ydpi="1000"
   xmlns:inkscape="http://www.inkscape.org/namespaces/inkscape"
   xmlns:sodipodi="http://sodipodi.sourceforge.net/DTD/sodipodi-0.dtd"
   xmlns="http://www.w3.org/2000/svg"
   xmlns:svg="http://www.w3.org/2000/svg"
   xmlns:rdf="http://www.w3.org/1999/02/22-rdf-syntax-ns#"
   xmlns:cc="http://creativecommons.org/ns#"
   xmlns:dc="http://purl.org/dc/elements/1.1/">
  <defs
     id="defs1484" />
  <sodipodi:namedview
     id="base"
     pagecolor="#ffffff"
     bordercolor="#666666"
     borderopacity="1.0"
     inkscape:pageopacity="0.0"
     inkscape:pageshadow="2"
     inkscape:zoom="0.95690255"
     inkscape:cx="561.18567"
     inkscape:cy="660.46433"
     inkscape:document-units="mm"
     inkscape:current-layer="layer1"
     inkscape:document-rotation="0"
     showgrid="false"
     inkscape:window-width="1440"
     inkscape:window-height="943"
     inkscape:window-x="514"
     inkscape:window-y="1677"
     inkscape:window-maximized="0"
     inkscape:showpageshadow="2"
     inkscape:pagecheckerboard="0"
     inkscape:deskcolor="#d1d1d1" />
  <metadata
     id="metadata1487">
    <rdf:RDF>
      <cc:Work
         rdf:about="">
        <dc:format>image/svg+xml</dc:format>
        <dc:type
           rdf:resource="http://purl.org/dc/dcmitype/StillImage" />
        <dc:title />
      </cc:Work>
    </rdf:RDF>
  </metadata>
  <g
     inkscape:label="Calque 1"
     inkscape:groupmode="layer"
     id="layer1"
     transform="translate(77.081587,-39.737633)">
    <path
       style="fill:none;stroke:#cccccc;stroke-width:1;stroke-linecap:butt;stroke-linejoin:miter;stroke-miterlimit:4;stroke-dasharray:none;stroke-opacity:1"
       d="M 175.67039,181.01193 38.476527,180.65743"
       id="path882" />
    <path
       style="fill:none;stroke:#cccccc;stroke-width:1;stroke-linecap:butt;stroke-linejoin:miter;stroke-miterlimit:4;stroke-dasharray:none;stroke-opacity:1"
       d="M 39.894551,137.40768 H 175.31589"
       id="path884" />
    <path
       style="fill:none;stroke:#cccccc;stroke-width:1;stroke-linecap:butt;stroke-linejoin:miter;stroke-miterlimit:4;stroke-dasharray:none;stroke-opacity:1"
       d="M 174.60687,151.94243 H 35.994985"
       id="path886" />
    <path
       style="fill:none;stroke:#cccccc;stroke-width:1;stroke-linecap:butt;stroke-linejoin:miter;stroke-miterlimit:4;stroke-dasharray:none;stroke-opacity:1"
       d="m 154.40003,98.057499 0.3545,96.425671"
       id="path888" />
    <path
       style="fill:none;stroke:#cccccc;stroke-width:1;stroke-linecap:butt;stroke-linejoin:miter;stroke-miterlimit:4;stroke-dasharray:none;stroke-opacity:1"
       d="m 168.22576,194.83767 0.35451,-96.425663"
       id="path890" />
    <path
       style="fill:none;fill-opacity:1;stroke:#0097a7;stroke-width:11;stroke-linecap:butt;stroke-linejoin:miter;stroke-miterlimit:4;stroke-dasharray:none;stroke-opacity:1"
       d="m 62.208759,180.0679 c -13.402455,1.30678 -18.198687,-15.2675 -17.947603,-22.86243 0.257499,-7.78899 4.509673,-20.64264 17.795185,-20.70422 12.646755,-0.0586 17.214208,10.2799 17.773979,20.39974 0.623422,11.27055 -5.306827,21.92455 -17.621561,23.16691"
       id="path861"
       sodipodi:nodetypes="csssc" />
    <path
       style="fill:none;stroke:#0097a7;stroke-width:11;stroke-linecap:butt;stroke-linejoin:miter;stroke-miterlimit:4;stroke-dasharray:none;stroke-opacity:1"
       d="m 97.530916,183.21863 0.279,-33.56157 c 4.982824,-2.02057 11.913484,-0.74413 17.077554,0.15105"
       id="path863"
       sodipodi:nodetypes="ccc" />
    <path
       style="fill:none;stroke:#0097a7;stroke-width:11;stroke-linecap:butt;stroke-linejoin:miter;stroke-miterlimit:4;stroke-dasharray:none;stroke-opacity:1"
       d="m 121.19491,190.83479 c 10.17559,2.25471 24.58484,7.03085 24.23882,-19.94327 -0.0733,-13.10732 -0.10938,-20.73793 -0.10938,-20.73793 -32.74895,-12.44343 -26.28063,43.01533 0.10938,20.73793"
       id="path880"
       sodipodi:nodetypes="ccsc" />
    <path
       style="fill:none;stroke:#000000;stroke-width:2.5;stroke-linecap:butt;stroke-linejoin:miter;stroke-miterlimit:4;stroke-dasharray:none;stroke-opacity:1"
       d="m 159.11694,168.88955 c 0.0122,1.2853 -0.83819,3.94878 -0.62743,6.3476 0.20674,2.35303 1.38983,4.13129 3.44129,4.12227 2.12451,-0.009 3.4066,-1.89593 3.64418,-4.22991 0.24444,-2.40141 -0.52281,-4.88104 -0.57388,-6.23136"
       id="path892"
       sodipodi:nodetypes="csssc" />
    <path
       style="fill:none;stroke:#000000;stroke-width:2.5;stroke-linecap:butt;stroke-linejoin:miter;stroke-miterlimit:4;stroke-dasharray:none;stroke-opacity:1"
       d="m 157.34963,164.86441 h 8.96314 l -4.54559,-0.064 v -9.53935 l -4.41755,-0.12804 9.02716,0.064"
       id="path894" />
    <path
       style="fill:none;stroke:#000000;stroke-width:2.5;stroke-linecap:butt;stroke-linejoin:miter;stroke-miterlimit:4;stroke-dasharray:none;stroke-opacity:1"
       d="m 165.03232,139.25543 c 0.83025,3.92502 1.0633,7.10132 -0.03,8.72492 -5.14738,7.64386 -10.70973,-7.74957 -2.91501,-8.27677 l -1e-5,10.8198"
       id="path896"
       sodipodi:nodetypes="cscc" />
    <path
       style="fill:none;stroke:#000000;stroke-width:2.5;stroke-linecap:butt;stroke-linejoin:miter;stroke-miterlimit:4;stroke-dasharray:none;stroke-opacity:1"
       d="m 159.19719,124.69333 c 0.0122,1.2853 -0.83819,3.94878 -0.62743,6.34759 0.20674,2.35301 1.38983,4.13126 3.44129,4.12224 2.12451,-0.009 3.4066,-1.89592 3.64418,-4.22988 0.24444,-2.4014 -0.52281,-4.88103 -0.57388,-6.23135"
       id="path892-4"
       sodipodi:nodetypes="csssc" />
    <path
       style="fill:none;stroke:#000000;stroke-width:2.3;stroke-linecap:butt;stroke-linejoin:miter;stroke-miterlimit:4;stroke-dasharray:none;stroke-opacity:1"
       d="m 157.41365,111.7898 c 1.386,-0.0267 2.25675,0.87994 2.98052,2.02943 2.05298,3.49389 1.30898,7.12578 1.30898,7.12578"
       id="path913"
       sodipodi:nodetypes="ccc" />
    <path
       style="fill:none;stroke:#000000;stroke-width:2.3;stroke-linecap:butt;stroke-linejoin:miter;stroke-miterlimit:4;stroke-dasharray:none;stroke-opacity:1"
       d="m 166.37679,111.14958 c -0.93297,0.0123 -2.20797,0.61469 -3.26514,2.56089 -1.05717,1.9462 -1.4085,7.23454 -1.4085,7.23454"
       id="path915"
       sodipodi:nodetypes="czc" />
    <path
       style="fill:none;stroke:#000000;stroke-width:2.3;stroke-linecap:butt;stroke-linejoin:miter;stroke-miterlimit:4;stroke-dasharray:none;stroke-opacity:1"
       d="m 157.41365,120.94501 h 8.96314"
       id="path917" />
    <path
       d="m 21.223302,213.70915 c -48.831998,-48.704 -74.245998,-7.15 -78.429998,-13.34 -2.74,-4.057 27.808,-63.33 65.3889999,-82.412 21.4339981,21.07 18.1981661,66.93402 13.0841661,95.71602 z"
       fill="#6c2221"
       stroke="#000000"
       stroke-width="2"
       id="path833"
       sodipodi:nodetypes="ccccc" />
    <path
       d="m 3.7673039,115.58815 c -9.544,24.931 -35.1529999,68.212 -42.5169999,89.559 4.633,11.272 35.3519999,20.864 45.4319999,9.354 9.6849981,-14.585 10.1199981,-65.384 6.5499981,-93.65 -3.2980001,-2.828 -8.5179981,-5.146 -9.4639981,-5.264"
       fill="#559bbe"
       stroke="#000000"
       stroke-width="2"
       id="path835" />
    <path
       d="m -37.744696,204.90515 c 1.13,3.293 6.898,7.298 8.666,8.115 -2.702,-4.04 14.431,-46.328 29.2039999,-65.913 15.0529981,-18.314 7.862,47.38 -0.234,70.54 2.893,-1.037 5.39,-2.267 7.09,-5.447 7.8899981,-14.763 8.8149981,-58.518 4.5999981,-99.907 -18.0429981,29.985 -36.022998,59.384 -49.325998,92.612 z"
       fill="#4883a1"
       id="path837" />
    <path
       d="m 17.105302,225.73615 c 7.074,-24.94 11.48,-89.321 -8.9229981,-107.779 -7.068,29.243 -32.1619999,46.444 -42.8419999,61.605 -10.68,15.16 -12.427,53.568 -10.518,56.607 -9.785,-8.062 -27.092,-13.327 -30.658,-29.385 -4.627,-15.204 59.692,-72.712 79.6029999,-91.196 30.9949981,4.598 29.8489981,76.834 13.3369981,110.149"
       fill="#e6655e"
       stroke="#000000"
       stroke-width="2"
       id="path839" />
    <path
       d="m -0.4926961,136.50815 c -4.217,-3.37 0.903,-10.933 -8.359,-5.844 -2.2779999,6.682 -46.1169999,39.207 -47.3199999,53.415 -1.205,14.207 0.547,17.196 6.274,13.793 5.726,-3.403 12.87,-16.707 12.87,-16.707 -4.989,12.938 -10.118,25.98 -9.707,52.525 -10.687,-7.125 -24.402,-12.877 -28.348,-27.706 5.005,-25.427 61.279,-70 78.8499999,-90.397 l 3.046,6.415 z"
       fill="#d25d56"
       id="path841" />
    <path
       d="m 77.185302,91.606152 c -16.806,-5.035 -33.834,-11.476 -46.789,-14.77 -48.547998,-12.343 -54.123998,45.969998 -8.636,47.189998 72.916,-2.209 55.425,-32.419998 55.425,-32.419998 z"
       fill="#e9e6d0"
       stroke="#000000"
       stroke-width="2"
       id="path843" />
    <path
       d="m -7.1166961,91.109152 c -1.677,26.025998 33.4359981,30.473998 63.6819981,23.999998 0.993,2.95 0.816,0.32 2.446,3.083 -6.666,1.75 -24.414,4.93 -37.22,4.817 -7.245,-0.065 -14.3679981,-2.996 -21.1449981,-6.595 -8.486,-5.831 -11.1329999,-19.013998 -7.763,-25.304998 z"
       fill="#aba898"
       id="path845" />
    <path
       d="m 26.207302,75.373152 c -37.952998,10.251 -23.7219981,43.628998 -23.7179981,43.636998 0.446,2.922 18.6829981,7.065 19.2709981,5.016 -9.072,-12.562 3.809,-36.857998 20.153,-43.664998 1.649,-2.676 -12.474,-6.194 -15.706,-4.988 z"
       stroke="#000000"
       stroke-width="2"
       id="path847" />
    <path
       d="m 66.115302,88.083152 c -18.969,3.986 -13.311,26.101998 -9.631,31.447998 14.085,-3.32 27.85,-13.748 20.701,-27.924998 z"
       fill="#2c2c2c"
       stroke="#000000"
       stroke-width="2"
       id="path849" />
    <path
       d="m 58.208302,93.692152 c 1.891,-3.31 3.499,-3.165 7.01,-4.653 3.93,0.448 7.083,1.89 11.012,3.298 1.11,0.484 2.574,3.984 1.906,6.95 -6.574,-2.647 -12.93,-5.354 -19.928,-5.595 z"
       fill="#bbbbbb"
       id="path851" />
    <g
       id="g859"
       transform="translate(-76.872696,39.738152)">
      <path
         d="M 69.361,49.795 C 53.395,33.798 33.218,34.101 38.175,28.444 45.207,18.489 72.178,44.916 72.017,45.29 Z"
         fill="#e9e6d0"
         stroke="#000000"
         stroke-width="1.948"
         id="path853" />
      <path
         fill="#e9e6d0"
         d="m 70.62,45.14 3.528,3.611 -3.206,1.252 -3.528,-3.612 z"
         id="path855" />
      <path
         d="m 39.072,28.988 c 10.77,4.045 22.585,8.805 32.778,19.183 L 70.592,49.63 C 65.95,44.926 55.493,38.44 53.706,37.679 40.899,32.219 36.386,31.209 39.072,28.988 Z"
         fill="#aba898"
         id="path857" />
    </g>
    <g
       id="g867"
       transform="translate(-76.872696,39.738152)">
      <path
         d="M 89.058,35.832 C 84.67,13.042 67.682,3.4 75.138,1.365 86.822,-3.175 94.63,35.084 94.278,35.313 Z"
         fill="#e9e6d0"
         stroke="#000000"
         stroke-width="2"
         id="path861-7" />
      <rect
         width="3.993"
         height="3.3970001"
         x="98.293999"
         y="-111.261"
         transform="matrix(0.14446,0.98951,-0.9581,0.28644,-27.736,-31.785)"
         ry="0"
         fill="#e9e6d0"
         id="rect863" />
      <path
         d="m 75.35,2.35 c 6.805,9.275 13.847,19.933 16.707,34.196 l -1.929,0.168 C 88.813,30.237 83.93,19.243 82.85,17.627 75.113,6.053 71.886,2.741 75.35,2.35 Z"
         fill="#aba898"
         id="path865" />
    </g>
    <g
       id="g871"
       transform="translate(-76.872696,39.738152)">
      <path
         d="m 105.598,45.775 c -1.17,-3.298 -1.669,-6.895 -0.118,-7.784 2.985,-0.418 5.467,2.862 5.467,2.862 -0.81,1.652 -2.73,3.625 -5.349,4.922 z"
         fill="#ffffff"
         id="path869" />
    </g>
    <g
       id="g875"
       transform="translate(-76.872696,39.738152)">
      <path
         d="m 87.168,47.952 c 5.713,-2.352 10.89,-1.164 16.313,-0.59 -0.972,2.68 -3.828,5 -7.64,7.74 -4.94,0.791 -9.238,-3.284 -8.673,-7.15 z"
         fill="#ffffff"
         id="path873" />
    </g>
    <g
       id="g4"
       transform="translate(1.0286447,-2.1166667)"
       style="display:inline">
      <g
         id="g13"
         inkscape:label="ending-bracket">
        <rect
           style="fill:#686868;fill-opacity:1;stroke:none;stroke-width:0.294176;stroke-dasharray:none;stroke-opacity:1"
           id="rect4-70-7"
           width="1.7695497"
           height="13.191318"
           x="168.32246"
           y="220.89131"
           ry="1.1154422" />
        <rect
           style="fill:#686868;fill-opacity:1;stroke:none;stroke-width:0.120574;stroke-dasharray:none;stroke-opacity:1"
           id="rect4-7-9-3-68"
           width="1.3191621"
           height="2.9726698"
           x="-222.47406"
           y="166.46619"
           ry="0.74627221"
           transform="matrix(-5.355285e-4,-0.99999986,0.99999838,-0.0018022,0,0)" />
        <rect
           style="fill:#686868;fill-opacity:1;stroke:none;stroke-width:0.120574;stroke-dasharray:none;stroke-opacity:1"
           id="rect4-7-9-3-3-5"
           width="1.3191621"
           height="2.9726698"
           x="-234.35115"
           y="166.46999"
           ry="0.74627221"
           transform="matrix(-5.355285e-4,-0.99999986,0.99999838,-0.0018022,0,0)" />
      </g>
      <g
         id="g14"
         inkscape:label="symbol-7"
         style="display:inline">
        <g
           id="g12">
          <rect
             style="fill:#686868;fill-opacity:1;stroke:none;stroke-width:0.205403;stroke-dasharray:none;stroke-opacity:1"
             id="rect4-7-9-3-6"
             width="1.4721245"
             height="7.7304425"
             x="-224.03357"
             y="157.02974"
             ry="0.73606223"
             transform="matrix(-0.00124794,-0.99999922,0.9999997,-7.7337719e-4,0,0)" />
          <path
             style="fill:none;fill-opacity:1;stroke:#686868;stroke-width:1.762;stroke-linecap:round;stroke-linejoin:round;stroke-dasharray:none;stroke-opacity:1"
             d="m 160.32272,231.54517 c 0.25573,-2.38487 1.40954,-5.25752 3.9102,-8.10443"
             id="path4-6"
             sodipodi:nodetypes="cc" />
        </g>
      </g>
      <g
         id="g11"
         inkscape:label="symbol-comma">
        <rect
           style="fill:#686868;fill-opacity:1;stroke:none;stroke-width:0.125853;stroke-dasharray:none;stroke-opacity:1"
           id="rect4-7-2-7"
           width="2.1152105"
           height="1.9837952"
           x="153.7753"
           y="230.34966"
           ry="0.99189758" />
        <path
           style="fill:none;fill-opacity:1;stroke:#686868;stroke-width:1.062;stroke-linecap:round;stroke-linejoin:round;stroke-dasharray:none;stroke-opacity:1"
           d="m 153.8909,234.59731 c 1.67538,-1.34891 1.52464,-3.41581 1.49293,-3.38503"
           id="path4-6-8"
           sodipodi:nodetypes="cc" />
      </g>
      <g
         id="g10"
         inkscape:label="symbol-N">
        <rect
           style="fill:#686868;fill-opacity:1;stroke:none;stroke-width:0.270106;stroke-dasharray:none;stroke-opacity:1"
           id="rect4-12"
           width="1.7695497"
           height="11.120896"
           x="143.30247"
           y="221.30327"
           ry="0.94036984" />
        <rect
           style="fill:#686868;fill-opacity:1;stroke:none;stroke-width:0.299112;stroke-dasharray:none;stroke-opacity:1"
           id="rect4-6-6"
           width="1.7695497"
           height="13.637674"
           x="-4.0650153"
           y="263.52362"
           ry="1.1531856"
           transform="rotate(-33.70429)" />
        <rect
           style="fill:#686868;fill-opacity:1;stroke:none;stroke-width:0.255591;stroke-dasharray:none;stroke-opacity:1"
           id="rect4-3-6"
           width="1.7695497"
           height="9.9577923"
           x="149.82127"
           y="222.44052"
           ry="0.84201914" />
      </g>
      <g
         id="g9"
         inkscape:label="opening-bracket">
        <rect
           style="fill:#686868;fill-opacity:1;stroke:none;stroke-width:0.294176;stroke-dasharray:none;stroke-opacity:1"
           id="rect4-70"
           width="1.7695497"
           height="13.191318"
           x="137.84348"
           y="220.8432"
           ry="1.1154422" />
        <rect
           style="fill:#686868;fill-opacity:1;stroke:none;stroke-width:0.120574;stroke-dasharray:none;stroke-opacity:1"
           id="rect4-7-9-3"
           width="1.3191621"
           height="2.9726698"
           x="-222.41335"
           y="138.18857"
           ry="0.74627221"
           transform="matrix(-5.355285e-4,-0.99999986,0.99999838,-0.0018022,0,0)" />
        <rect
           style="fill:#686868;fill-opacity:1;stroke:none;stroke-width:0.120574;stroke-dasharray:none;stroke-opacity:1"
           id="rect4-7-9-3-3"
           width="1.3191621"
           height="2.9726698"
           x="-234.29044"
           y="138.19237"
           ry="0.74627221"
           transform="matrix(-5.355285e-4,-0.99999986,0.99999838,-0.0018022,0,0)" />
      </g>
      <g
         id="g8"
         inkscape:label="letter8-n">
        <rect
           style="fill:#686868;fill-opacity:1;stroke:none;stroke-width:0.219285;stroke-dasharray:none;stroke-opacity:1"
           id="rect4-1"
           width="1.7695497"
           height="7.3297653"
           x="124.68337"
           y="225.0789"
           ry="0.75533831" />
        <rect
           style="fill:#686868;fill-opacity:1;stroke:none;stroke-width:0.1832;stroke-dasharray:none;stroke-opacity:1"
           id="rect4-1-6"
           width="1.7695497"
           height="5.1159201"
           x="129.81053"
           y="227.25636"
           ry="0.75310904" />
        <path
           style="fill:none;fill-opacity:1;stroke:#686868;stroke-width:1.762;stroke-linecap:round;stroke-linejoin:round;stroke-dasharray:none;stroke-opacity:1"
           d="m 130.68029,228.01593 c 0.20183,-2.51075 -2.11347,-2.44427 -2.8709,-2.14791 -1.30508,0.51063 -1.96707,1.75569 -1.96707,1.75569"
           id="path4"
           sodipodi:nodetypes="csc" />
      </g>
      <g
         id="g7"
         inkscape:label="letter7-e">
        <path
           style="fill:none;fill-opacity:1;stroke:#686868;stroke-width:1.762;stroke-linecap:round;stroke-linejoin:round;stroke-dasharray:none;stroke-opacity:1"
           d="m 122.13102,228.4063 c 0.65364,-3.43695 -5.41359,-4.13744 -5.24288,0.31443 0.18287,4.7687 4.85519,2.61412 4.85519,2.61412"
           id="path4-0"
           sodipodi:nodetypes="csc" />
        <rect
           style="fill:#686868;fill-opacity:1;stroke:none;stroke-width:0.174246;stroke-dasharray:none;stroke-opacity:1"
           id="rect4-7-9-2"
           width="1.3191628"
           height="6.2081714"
           x="-229.45233"
           y="116.55144"
           ry="0.65958142"
           transform="matrix(-0.00111841,-0.99999937,0.99999963,-8.6295076e-4,0,0)" />
      </g>
      <g
         id="g6"
         inkscape:label="letter6-g">
        <path
           style="fill:none;fill-opacity:1;stroke:#686868;stroke-width:1.762;stroke-linecap:round;stroke-linejoin:round;stroke-dasharray:none;stroke-opacity:1"
           d="m 113.67896,227.55312 c -0.09,-2.38705 -4.62616,-2.30011 -4.76167,-0.29802 -0.10014,1.47944 1.48336,1.93811 2.3692,1.94977 1.83182,0.0241 2.31101,-1.21673 2.31101,-1.21673"
           id="path4-0-1"
           sodipodi:nodetypes="cssc" />
        <path
           style="fill:none;fill-opacity:1;stroke:#686868;stroke-width:1.462;stroke-linecap:round;stroke-linejoin:round;stroke-dasharray:none;stroke-opacity:1"
           d="m 111.60955,229.34751 c -3.021,0.58769 -2.55156,1.19644 -2.53062,1.49557 0.0688,0.98248 1.70204,1.03787 2.58793,1.0311 4.18013,-0.0319 2.67164,3.90211 -0.48939,3.4664 -0.66005,-0.091 -2.84196,-0.0588 -2.64717,-1.71131 0.18166,-1.54107 1.42292,-1.79067 1.42292,-1.79067"
           id="path4-0-1-0"
           sodipodi:nodetypes="cssssc" />
        <rect
           style="fill:#686868;fill-opacity:1;stroke:none;stroke-width:0.154055;stroke-dasharray:none;stroke-opacity:1"
           id="rect4-7-9-8"
           width="1.3191625"
           height="4.8527565"
           x="-226.3062"
           y="110.27563"
           ry="0.65958124"
           transform="matrix(-8.7422831e-4,-0.99999961,0.9999994,-0.00110398,-6.2500001e-7,-2.1666666e-7)" />
      </g>
      <path
         style="fill:none;fill-opacity:1;stroke:#686868;stroke-width:1.762;stroke-linecap:round;stroke-linejoin:round;stroke-dasharray:none;stroke-opacity:1"
         d="m 105.87143,228.43087 c -0.15939,-1.50645 -0.9376,-2.83614 -2.79604,-2.83873 -1.50996,-0.002 -3.07486,0.89183 -2.98901,3.13057 0.0906,2.36176 1.3253,2.96639 2.86894,3.00317 3.05354,0.0727 2.88986,-3.16765 2.88986,-3.16765"
         id="path4-0-8"
         sodipodi:nodetypes="csssc"
         inkscape:label="letter5-o" />
      <g
         id="g5"
         inkscape:label="letter4-r">
        <path
           style="fill:none;fill-opacity:1;stroke:#686868;stroke-width:1.362;stroke-linecap:round;stroke-linejoin:round;stroke-dasharray:none;stroke-opacity:1"
           d="m 98.065726,225.6277 c -2.802307,-0.11224 -2.876312,3.73687 -2.705602,4.82028"
           id="path4-0-1-1"
           sodipodi:nodetypes="cc" />
        <rect
           style="fill:#686868;fill-opacity:1;stroke:none;stroke-width:0.219285;stroke-dasharray:none;stroke-opacity:1"
           id="rect4-5"
           width="1.7695497"
           height="7.3297653"
           x="94.237198"
           y="225.07166"
           ry="0.77792859" />
      </g>
      <g
         id="g3"
         inkscape:label="letter3-t">
        <path
           style="fill:none;fill-opacity:1;stroke:#686868;stroke-width:1.762;stroke-linecap:round;stroke-linejoin:round;stroke-dasharray:none;stroke-opacity:1"
           d="m 90.074025,229.325 c -0.182572,2.62162 0.718469,2.51444 1.77502,2.22013"
           id="path4-0-1-1-1"
           sodipodi:nodetypes="cc" />
        <rect
           style="fill:#686868;fill-opacity:1;stroke:none;stroke-width:0.624811;stroke-dasharray:none;stroke-opacity:1"
           id="rect4-7-9"
           width="1.677938"
           height="4.8527584"
           x="-226.93187"
           y="87.795288"
           ry="0.65958148"
           transform="matrix(-6.8730129e-4,-0.99999976,0.99999901,-0.00140423,0,0)" />
        <rect
           style="fill:#686868;fill-opacity:1;stroke:none;stroke-width:0.231305;stroke-dasharray:none;stroke-opacity:1"
           id="rect4-0"
           width="1.7695497"
           height="8.1553164"
           x="89.185654"
           y="223.35143"
           ry="0.82514727" />
      </g>
      <g
         id="g2"
         inkscape:label="letter2-i">
        <rect
           style="fill:#686868;fill-opacity:1;stroke:none;stroke-width:0.125853;stroke-dasharray:none;stroke-opacity:1"
           id="rect4-7-2"
           width="2.1535842"
           height="1.9837936"
           x="84.701363"
           y="221.77405"
           ry="0.86803794"
           inkscape:label="I-part2" />
        <rect
           style="fill:#686868;fill-opacity:1;stroke:none;stroke-width:0.219066;stroke-dasharray:none;stroke-opacity:1"
           id="rect4-7"
           width="1.7695497"
           height="7.3150949"
           x="84.905441"
           y="225.06812"
           ry="0.82187313"
           inkscape:label="I-part1" />
      </g>
      <g
         id="g1"
         inkscape:label="letter1-N">
        <rect
           style="fill:#686868;fill-opacity:1;stroke:none;stroke-width:0.255591;stroke-dasharray:none;stroke-opacity:1"
           id="rect4-3"
           width="1.7695497"
           height="9.9577923"
           x="80.884193"
           y="222.4236"
           ry="0.84201914"
           inkscape:label="N-part3" />
        <rect
           style="fill:#686868;fill-opacity:1;stroke:none;stroke-width:0.299112;stroke-dasharray:none;stroke-opacity:1"
           id="rect4-6"
           width="1.7695497"
           height="13.637674"
           x="-61.405243"
           y="225.25589"
           ry="1.1531856"
           transform="rotate(-33.70429)"
           inkscape:label="N-part2" />
        <rect
           style="fill:#686868;fill-opacity:1;stroke:none;stroke-width:0.87;stroke-dasharray:none;stroke-opacity:1"
           id="rect4"
           width="1.7695497"
           height="11.120896"
           x="74.323387"
           y="221.28635"
           ry="0.94036984"
           inkscape:label="N-part1" />
      </g>
    </g>
  </g>
</svg>
