<?xml version="1.0" encoding="UTF-8" standalone="no"?>
<svg
   xmlns:dc="http://purl.org/dc/elements/1.1/"
   xmlns:cc="http://creativecommons.org/ns#"
   xmlns:rdf="http://www.w3.org/1999/02/22-rdf-syntax-ns#"
   xmlns:svg="http://www.w3.org/2000/svg"
   xmlns="http://www.w3.org/2000/svg"
   xmlns:sodipodi="http://sodipodi.sourceforge.net/DTD/sodipodi-0.dtd"
   xmlns:inkscape="http://www.inkscape.org/namespaces/inkscape"
   width="139.6767mm"
   height="100.22202mm"
   viewBox="0 0 139.6767 100.22202"
   version="1.1"
   id="svg8"
   inkscape:version="1.0.1 (c497b03c, 2020-09-10)"
   sodipodi:docname="Logo.svg">
  <defs
     id="defs2" />
  <sodipodi:namedview
     id="base"
     pagecolor="#ffffff"
     bordercolor="#666666"
     borderopacity="1.0"
     inkscape:pageopacity="0.0"
     inkscape:pageshadow="2"
     inkscape:zoom="1.118222"
     inkscape:cx="337.00851"
     inkscape:cy="153.65367"
     inkscape:document-units="mm"
     inkscape:current-layer="layer1"
     inkscape:document-rotation="0"
     showgrid="false"
     inkscape:window-width="1440"
     inkscape:window-height="855"
     inkscape:window-x="0"
     inkscape:window-y="23"
     inkscape:window-maximized="1" />
  <metadata
     id="metadata5">
    <rdf:RDF>
      <cc:Work
         rdf:about="">
        <dc:format>image/svg+xml</dc:format>
        <dc:type
           rdf:resource="http://purl.org/dc/dcmitype/StillImage" />
        <dc:title></dc:title>
      </cc:Work>
    </rdf:RDF>
  </metadata>
  <g
     inkscape:label="Layer 1"
     inkscape:groupmode="layer"
     id="layer1"
     transform="translate(-33.323575,-52.465065)">
    <path
       style="fill:none;stroke:#cccccc;stroke-width:1;stroke-linecap:butt;stroke-linejoin:miter;stroke-miterlimit:4;stroke-dasharray:none;stroke-opacity:1"
       d="M 172.99898,135.42133 35.805117,135.06683"
       id="path882" />
    <path
       style="fill:none;stroke:#cccccc;stroke-width:1;stroke-linecap:butt;stroke-linejoin:miter;stroke-miterlimit:4;stroke-dasharray:none;stroke-opacity:1"
       d="M 37.223141,91.817083 H 172.64448"
       id="path884" />
    <path
       style="fill:none;stroke:#cccccc;stroke-width:1;stroke-linecap:butt;stroke-linejoin:miter;stroke-miterlimit:4;stroke-dasharray:none;stroke-opacity:1"
       d="M 171.93546,106.35183 H 33.323575"
       id="path886" />
    <path
       style="fill:none;stroke:#cccccc;stroke-width:1;stroke-linecap:butt;stroke-linejoin:miter;stroke-miterlimit:4;stroke-dasharray:none;stroke-opacity:1"
       d="m 151.72862,52.466903 0.3545,96.425667"
       id="path888" />
    <path
       style="fill:none;stroke:#cccccc;stroke-width:1;stroke-linecap:butt;stroke-linejoin:miter;stroke-miterlimit:4;stroke-dasharray:none;stroke-opacity:1"
       d="m 165.55435,149.24707 0.35451,-96.425659"
       id="path890" />
    <path
       style="fill:none;fill-opacity:1;stroke:#0097a7;stroke-width:11;stroke-linecap:butt;stroke-linejoin:miter;stroke-miterlimit:4;stroke-dasharray:none;stroke-opacity:1"
       d="m 59.537349,134.4773 c -13.402455,1.30678 -18.198687,-15.2675 -17.947603,-22.86243 0.257499,-7.78899 4.509673,-20.642639 17.795185,-20.704217 12.646755,-0.05862 17.214208,10.279897 17.773979,20.399737 0.623422,11.27055 -5.306827,21.92455 -17.621561,23.16691"
       id="path861"
       sodipodi:nodetypes="csssc" />
    <path
       style="fill:none;stroke:#0097a7;stroke-width:11;stroke-linecap:butt;stroke-linejoin:miter;stroke-miterlimit:4;stroke-dasharray:none;stroke-opacity:1"
       d="m 94.859506,137.62803 0.279,-33.56157 c 4.982824,-2.02057 11.913484,-0.74413 17.077554,0.15105"
       id="path863"
       sodipodi:nodetypes="ccc" />
    <path
       style="fill:none;stroke:#0097a7;stroke-width:11;stroke-linecap:butt;stroke-linejoin:miter;stroke-miterlimit:4;stroke-dasharray:none;stroke-opacity:1"
       d="m 118.5235,145.24419 c 10.17559,2.25471 24.58484,7.03085 24.23882,-19.94327 -0.0733,-13.10732 -0.10938,-20.73793 -0.10938,-20.73793 -32.74895,-12.443422 -26.28063,43.01533 0.10938,20.73793"
       id="path880"
       sodipodi:nodetypes="ccsc" />
    <path
       style="fill:none;stroke:#000000;stroke-width:2.5;stroke-linecap:butt;stroke-linejoin:miter;stroke-miterlimit:4;stroke-dasharray:none;stroke-opacity:1"
       d="m 156.44553,123.29895 c 0.0122,1.2853 -0.83819,3.94878 -0.62743,6.3476 0.20674,2.35303 1.38983,4.13129 3.44129,4.12227 2.12451,-0.009 3.4066,-1.89593 3.64418,-4.22991 0.24444,-2.40141 -0.52281,-4.88104 -0.57388,-6.23136"
       id="path892"
       sodipodi:nodetypes="csssc" />
    <path
       style="fill:none;stroke:#000000;stroke-width:2.5;stroke-linecap:butt;stroke-linejoin:miter;stroke-miterlimit:4;stroke-dasharray:none;stroke-opacity:1"
       d="m 154.67822,119.27381 h 8.96314 l -4.54559,-0.064 v -9.53935 l -4.41755,-0.12804 9.02716,0.064"
       id="path894" />
    <path
       style="fill:none;stroke:#000000;stroke-width:2.5;stroke-linecap:butt;stroke-linejoin:miter;stroke-miterlimit:4;stroke-dasharray:none;stroke-opacity:1"
       d="m 162.36091,93.664832 c 0.83025,3.925022 1.0633,7.101318 -0.03,8.724918 -5.14738,7.64386 -10.70973,-7.749567 -2.91501,-8.276761 l -1e-5,10.819791"
       id="path896"
       sodipodi:nodetypes="cscc" />
    <path
       style="fill:none;stroke:#000000;stroke-width:2.5;stroke-linecap:butt;stroke-linejoin:miter;stroke-miterlimit:4;stroke-dasharray:none;stroke-opacity:1"
       d="m 156.52578,79.102731 c 0.0122,1.2853 -0.83819,3.94878 -0.62743,6.347589 0.20674,2.353018 1.38983,4.131266 3.44129,4.122246 2.12451,-0.009 3.4066,-1.895918 3.64418,-4.229886 0.24444,-2.401399 -0.52281,-4.881029 -0.57388,-6.231349"
       id="path892-4"
       sodipodi:nodetypes="csssc" />
    <path
       style="fill:none;stroke:#000000;stroke-width:2.3;stroke-linecap:butt;stroke-linejoin:miter;stroke-miterlimit:4;stroke-dasharray:none;stroke-opacity:1"
       d="m 154.74224,66.199204 c 1.386,-0.02675 2.25675,0.879936 2.98052,2.029433 2.05298,3.493884 1.30898,7.125778 1.30898,7.125778"
       id="path913"
       sodipodi:nodetypes="ccc" />
    <path
       style="fill:none;stroke:#000000;stroke-width:2.3;stroke-linecap:butt;stroke-linejoin:miter;stroke-miterlimit:4;stroke-dasharray:none;stroke-opacity:1"
       d="m 163.70538,65.558981 c -0.93297,0.01231 -2.20797,0.614697 -3.26514,2.560897 -1.05717,1.9462 -1.4085,7.234537 -1.4085,7.234537"
       id="path915"
       sodipodi:nodetypes="czc" />
    <path
       style="fill:none;stroke:#000000;stroke-width:2.3;stroke-linecap:butt;stroke-linejoin:miter;stroke-miterlimit:4;stroke-dasharray:none;stroke-opacity:1"
       d="m 154.74224,75.354415 h 8.96314"
       id="path917" />
  </g>
</svg>
