<?xml version="1.0" encoding="UTF-8" standalone="no"?>
<!-- Created with Inkscape (http://www.inkscape.org/) -->

<svg
   width="157.18698mm"
   height="197.20331mm"
   viewBox="0 0 157.18698 197.20331"
   version="1.1"
   id="svg1"
   inkscape:version="1.4.2 (ebf0e940, 2025-05-08)"
   sodipodi:docname="Mascot.svg"
   xmlns:inkscape="http://www.inkscape.org/namespaces/inkscape"
   xmlns:sodipodi="http://sodipodi.sourceforge.net/DTD/sodipodi-0.dtd"
   xmlns="http://www.w3.org/2000/svg"
   xmlns:svg="http://www.w3.org/2000/svg">
  <sodipodi:namedview
     id="namedview1"
     pagecolor="#ffffff"
     bordercolor="#000000"
     borderopacity="0.25"
     inkscape:showpageshadow="2"
     inkscape:pageopacity="0.0"
     inkscape:pagecheckerboard="0"
     inkscape:deskcolor="#d1d1d1"
     inkscape:document-units="mm"
     inkscape:zoom="0.60623557"
     inkscape:cx="334.85333"
     inkscape:cy="567.43618"
     inkscape:window-width="1216"
     inkscape:window-height="965"
     inkscape:window-x="538"
     inkscape:window-y="1474"
     inkscape:window-maximized="0"
     inkscape:current-layer="layer1"
     showgrid="false" />
  <defs
     id="defs1" />
  <g
     inkscape:label="OrgChecky"
     inkscape:groupmode="layer"
     id="layer1"
     transform="translate(-14.22596,-16.610137)">
    <g
       id="cape-back"
       inkscape:label="Cape-Back"
       transform="translate(14.22596,16.610137)">
      <path
         d="m 112.53085,190.58166 c -48.831998,-48.704 -74.245998,-7.15 -78.429998,-13.34 -2.74,-4.057 27.808,-63.33 65.389,-82.412003 21.433998,21.070003 18.198168,66.934023 13.084168,95.716023 z"
         fill="#6c2221"
         stroke="#000000"
         stroke-width="2"
         id="cape-back-1"
         sodipodi:nodetypes="ccccc"
         style="display:inline"
         transform="translate(-14.22596,-16.610137)"
         inkscape:label="Cape-Back1" />
    </g>
    <g
       id="body"
       inkscape:label="Body">
      <path
         d="m 95.074852,92.460657 c -9.544,24.931003 -35.153,68.212003 -42.517,89.559003 4.633,11.272 35.352,20.864 45.432,9.354 9.684998,-14.585 10.119998,-65.384 6.549998,-93.650003 -3.298,-2.828 -8.517998,-5.146 -9.463998,-5.264"
         fill="#559bbe"
         stroke="#000000"
         stroke-width="2"
         id="body-1"
         style="display:inline"
         inkscape:label="Body1" />
      <path
         d="m 53.562852,181.77766 c 1.13,3.293 6.898,7.298 8.666,8.115 -2.702,-4.04 14.431,-46.328 29.204,-65.913 15.052998,-18.314 7.862,47.38 -0.234,70.54 2.893,-1.037 5.39,-2.267 7.09,-5.447 7.889998,-14.763 8.814998,-58.518 4.599998,-99.907006 C 84.845852,119.15066 66.865852,148.54966 53.562852,181.77766 Z"
         fill="#4883a1"
         id="body-shadow"
         style="display:inline"
         inkscape:label="BodyShadow" />
    </g>
    <g
       id="cape-front"
       inkscape:label="CapeFront">
      <path
         d="m 108.41285,202.60866 c 7.074,-24.94 11.48,-89.321 -8.922998,-107.779003 -7.068,29.243003 -32.162,46.444003 -42.842,61.605003 -10.68,15.16 -12.427,53.568 -10.518,56.607 -9.785,-8.062 -27.092,-13.327 -30.658,-29.385 -4.627,-15.204 59.692,-72.712 79.603,-91.196003 30.994998,4.598 29.848998,76.834003 13.336998,110.149003"
         fill="#e6655e"
         stroke="#000000"
         stroke-width="2"
         id="cape-front-1"
         style="display:inline"
         inkscape:label="CapeFront1" />
      <path
         d="m 90.814852,113.38066 c -4.217,-3.37 0.903,-10.933 -8.359,-5.844 -2.278,6.682 -46.117,39.207 -47.32,53.415 -1.205,14.207 0.547,17.196 6.274,13.793 5.726,-3.403 12.87,-16.707 12.87,-16.707 -4.989,12.938 -10.118,25.98 -9.707,52.525 -10.687,-7.125 -24.402,-12.877 -28.348,-27.706 5.005,-25.427 61.279,-70 78.85,-90.397003 l 3.046,6.415 z"
         fill="#d25d56"
         id="cape-shadow"
         style="display:inline"
         inkscape:label="CapeShadow" />
    </g>
    <g
       id="head"
       inkscape:label="Head"
       style="display:inline">
      <path
         d="m 168.19046,68.982645 c -10.85893,-4.127819 -33.53161,-11.979989 -46.48661,-15.273989 -48.547998,-12.343 -54.123998,45.970001 -8.636,47.190004 72.916,-2.209003 55.12261,-31.916015 55.12261,-31.916015 z"
         fill="#e9e6d0"
         stroke="#000000"
         stroke-width="2"
         id="skin"
         sodipodi:nodetypes="cccc"
         inkscape:label="Skin" />
      <path
         d="m 84.190852,67.981656 c -1.677,26.026001 33.435998,30.474001 63.681998,24.000001 0.993,2.95 0.816,0.32 2.446,3.083 -6.666,1.75 -24.414,4.93 -37.22,4.817 -7.245,-0.065 -14.367998,-2.996 -21.144998,-6.595 -8.486,-5.831003 -11.133,-19.014001 -7.763,-25.305001 z"
         fill="#aba898"
         id="head-shadow"
         inkscape:label="HeadShadow" />
      <path
         d="m 117.31325,52.346454 c -37.952994,10.251 -23.520398,43.528203 -23.516398,43.536203 0.446,2.922 18.682998,7.065003 19.270998,5.016003 -9.072,-12.562006 3.809,-36.858004 20.153,-43.665004 1.649,-2.676 -12.6756,-6.093202 -15.9076,-4.887202 z"
         stroke="#000000"
         stroke-width="2"
         id="mask"
         sodipodi:nodetypes="ccccc"
         inkscape:label="Mask" />
      <g
         id="nose"
         inkscape:label="Nose">
        <path
           d="m 157.42285,64.955656 c -18.969,3.986 -13.311,26.102001 -9.631,31.448001 14.085,-3.32 27.85,-13.748003 20.701,-27.925001 z"
           fill="#2c2c2c"
           stroke="#000000"
           stroke-width="2"
           id="nose-2"
           sodipodi:nodetypes="cccc"
           inkscape:label="Nose2" />
        <path
           d="m 149.51585,70.564656 c 1.891,-3.31 3.499,-3.165 7.01,-4.653 3.93,0.448 7.083,1.89 11.012,3.298 1.11,0.484 2.574,3.984 1.906,6.95 -6.574,-2.647 -12.93,-5.354 -19.928,-5.595 z"
           fill="#bbbbbb"
           id="nose-1"
           sodipodi:nodetypes="ccccc"
           inkscape:label="Nose1" />
      </g>
      <g
         id="right-ear"
         transform="translate(14.434852,16.610656)"
         inkscape:label="RightEar">
        <path
           d="M 69.361,49.795 C 53.395,33.798 33.218,34.101 38.175,28.444 45.207,18.489 72.178,44.916 72.017,45.29 Z"
           fill="#e9e6d0"
           stroke="#000000"
           stroke-width="1.948"
           id="right-ear-3"
           inkscape:label="RightEar3" />
        <path
           fill="#e9e6d0"
           d="m 70.62,45.14 3.528,3.611 -3.206,1.252 -3.528,-3.612 z"
           id="right-ear-2"
           inkscape:label="RightEar2" />
        <path
           d="m 39.072,28.988 c 10.77,4.045 22.585,8.805 32.778,19.183 L 70.592,49.63 C 65.95,44.926 55.493,38.44 53.706,37.679 40.899,32.219 36.386,31.209 39.072,28.988 Z"
           fill="#aba898"
           id="right-ear-1"
           inkscape:label="RightEar1" />
      </g>
      <g
         id="left-ear"
         transform="translate(14.434852,16.610656)"
         inkscape:label="LeftEar">
        <path
           d="M 89.058,35.832 C 84.67,13.042 67.682,3.4 75.138,1.365 86.822,-3.175 94.63,35.084 94.278,35.313 Z"
           fill="#e9e6d0"
           stroke="#000000"
           stroke-width="2"
           id="left-ear-3"
           inkscape:label="LeftEar3" />
        <rect
           width="3.993"
           height="3.3970001"
           x="98.293999"
           y="-111.261"
           transform="matrix(0.14446,0.98951,-0.9581,0.28644,-27.736,-31.785)"
           ry="0"
           fill="#e9e6d0"
           id="left-ear-2"
           inkscape:label="LeftEar2" />
        <path
           d="m 75.35,2.35 c 6.805,9.275 13.847,19.933 16.707,34.196 l -1.929,0.168 C 88.813,30.237 83.93,19.243 82.85,17.627 75.113,6.053 71.886,2.741 75.35,2.35 Z"
           fill="#aba898"
           id="left-ear-1"
           inkscape:label="LeftEar1" />
      </g>
      <g
         id="left-eye"
         transform="translate(14.434852,16.610656)"
         inkscape:label="LeftEye">
        <path
           d="m 105.598,45.775 c -1.17,-3.298 -1.669,-6.895 -0.118,-7.784 2.985,-0.418 5.467,2.862 5.467,2.862 -0.81,1.652 -2.73,3.625 -5.349,4.922 z"
           fill="#ffffff"
           id="left-eye-1"
           inkscape:label="LeftEye1" />
      </g>
      <g
         id="right-eye"
         transform="translate(14.434852,16.610656)"
         inkscape:label="RightEye">
        <path
           d="m 87.168,47.952 c 5.713,-2.352 10.89,-1.164 16.313,-0.59 -0.972,2.68 -3.828,5 -7.64,7.74 -4.94,0.791 -9.238,-3.284 -8.673,-7.15 z"
           fill="#ffffff"
           id="right-eye-1"
           inkscape:label="RightEye1" />
      </g>
    </g>
    <g
       id="version"
       transform="matrix(0.58580989,0,0,0.58580989,69.408976,73.924765)"
       style="display:inline"
       inkscape:label="Version">
      <g
         id="g13"
         inkscape:label="]">
        <rect
           style="fill:#686868;fill-opacity:1;stroke:none;stroke-width:0.294176;stroke-dasharray:none;stroke-opacity:1"
           id="rect4-70-7"
           width="1.7695497"
           height="13.191318"
           x="168.32246"
           y="220.89131"
           ry="1.1154422"
           inkscape:label="]3" />
        <rect
           style="fill:#686868;fill-opacity:1;stroke:none;stroke-width:0.120574;stroke-dasharray:none;stroke-opacity:1"
           id="rect4-7-9-3-68"
           width="1.3191621"
           height="2.9726698"
           x="-222.47406"
           y="166.46619"
           ry="0.74627221"
           transform="matrix(-5.355285e-4,-0.99999986,0.99999838,-0.0018022,0,0)"
           inkscape:label="]2" />
        <rect
           style="fill:#686868;fill-opacity:1;stroke:none;stroke-width:0.120574;stroke-dasharray:none;stroke-opacity:1"
           id="rect4-7-9-3-3-5"
           width="1.3191621"
           height="2.9726698"
           x="-234.35115"
           y="166.46999"
           ry="0.74627221"
           transform="matrix(-5.355285e-4,-0.99999986,0.99999838,-0.0018022,0,0)"
           inkscape:label="]1" />
      </g>
      <g
         id="g14"
         inkscape:label="7"
         style="display:inline">
        <rect
           style="display:inline;fill:#686868;fill-opacity:1;stroke:none;stroke-width:0.205403;stroke-dasharray:none;stroke-opacity:1"
           id="rect4-7-9-3-6"
           width="1.4721245"
           height="7.7304425"
           x="-224.03357"
           y="157.02974"
           ry="0.73606223"
           transform="matrix(-0.00124794,-0.99999922,0.99999972,-7.7337604e-4,1.0668988e-7,1.778165e-6)"
           inkscape:label="72" />
        <path
           style="display:inline;fill:none;fill-opacity:1;stroke:#686868;stroke-width:1.762;stroke-linecap:round;stroke-linejoin:round;stroke-dasharray:none;stroke-opacity:1"
           d="m 160.32272,231.54517 c 0.25573,-2.38487 1.40954,-5.25752 3.9102,-8.10443"
           id="path4-6"
           sodipodi:nodetypes="cc"
           transform="translate(1.0668988e-7)"
           inkscape:label="71" />
      </g>
      <g
         id="g11"
         inkscape:label="s,">
        <rect
           style="fill:#686868;fill-opacity:1;stroke:none;stroke-width:0.125853;stroke-dasharray:none;stroke-opacity:1"
           id="rect4-7-2-7"
           width="2.1152105"
           height="1.9837952"
           x="153.7753"
           y="230.34966"
           ry="0.99189758"
           inkscape:label="s,2" />
        <path
           style="fill:none;fill-opacity:1;stroke:#686868;stroke-width:1.062;stroke-linecap:round;stroke-linejoin:round;stroke-dasharray:none;stroke-opacity:1"
           d="m 153.8909,234.59731 c 1.67538,-1.34891 1.52464,-3.41581 1.49293,-3.38503"
           id="path4-6-8"
           sodipodi:nodetypes="cc"
           inkscape:label="s,1" />
      </g>
      <g
         id="g10"
         inkscape:label="sN">
        <rect
           style="fill:#686868;fill-opacity:1;stroke:none;stroke-width:0.270106;stroke-dasharray:none;stroke-opacity:1"
           id="rect4-12"
           width="1.7695497"
           height="11.120896"
           x="143.30247"
           y="221.30327"
           ry="0.94036984"
           inkscape:label="sN3" />
        <rect
           style="fill:#686868;fill-opacity:1;stroke:none;stroke-width:0.299112;stroke-dasharray:none;stroke-opacity:1"
           id="rect4-6-6"
           width="1.7695497"
           height="13.637674"
           x="-4.0650153"
           y="263.52362"
           ry="1.1531856"
           transform="rotate(-33.70429)"
           inkscape:label="sN2" />
        <rect
           style="fill:#686868;fill-opacity:1;stroke:none;stroke-width:0.255591;stroke-dasharray:none;stroke-opacity:1"
           id="rect4-3-6"
           width="1.7695497"
           height="9.9577923"
           x="149.82127"
           y="222.44052"
           ry="0.84201914"
           inkscape:label="sN1" />
      </g>
      <g
         id="g9"
         inkscape:label="[">
        <rect
           style="fill:#686868;fill-opacity:1;stroke:none;stroke-width:0.294176;stroke-dasharray:none;stroke-opacity:1"
           id="rect4-70"
           width="1.7695497"
           height="13.191318"
           x="137.84348"
           y="220.8432"
           ry="1.1154422"
           inkscape:label="[3" />
        <rect
           style="fill:#686868;fill-opacity:1;stroke:none;stroke-width:0.120574;stroke-dasharray:none;stroke-opacity:1"
           id="rect4-7-9-3"
           width="1.3191621"
           height="2.9726698"
           x="-222.41335"
           y="138.18857"
           ry="0.74627221"
           transform="matrix(-5.355285e-4,-0.99999986,0.99999838,-0.0018022,0,0)"
           inkscape:label="[2" />
        <rect
           style="fill:#686868;fill-opacity:1;stroke:none;stroke-width:0.120574;stroke-dasharray:none;stroke-opacity:1"
           id="rect4-7-9-3-3"
           width="1.3191621"
           height="2.9726698"
           x="-234.29044"
           y="138.19237"
           ry="0.74627221"
           transform="matrix(-5.355285e-4,-0.99999986,0.99999838,-0.0018022,0,0)"
           inkscape:label="[1" />
      </g>
      <g
         id="g8"
         inkscape:label="n">
        <rect
           style="fill:#686868;fill-opacity:1;stroke:none;stroke-width:0.219285;stroke-dasharray:none;stroke-opacity:1"
           id="rect4-1"
           width="1.7695497"
           height="7.3297653"
           x="124.68337"
           y="225.0789"
           ry="0.75533831"
           inkscape:label="n3" />
        <rect
           style="fill:#686868;fill-opacity:1;stroke:none;stroke-width:0.1832;stroke-dasharray:none;stroke-opacity:1"
           id="rect4-1-6"
           width="1.7695497"
           height="5.1159201"
           x="129.81053"
           y="227.25636"
           ry="0.75310904"
           inkscape:label="n2" />
        <path
           style="fill:none;fill-opacity:1;stroke:#686868;stroke-width:1.762;stroke-linecap:round;stroke-linejoin:round;stroke-dasharray:none;stroke-opacity:1"
           d="m 130.68029,228.01593 c 0.20183,-2.51075 -2.11347,-2.44427 -2.8709,-2.14791 -1.30508,0.51063 -1.96707,1.75569 -1.96707,1.75569"
           id="path4"
           sodipodi:nodetypes="csc"
           inkscape:label="n1" />
      </g>
      <g
         id="g7"
         inkscape:label="e">
        <path
           style="fill:none;fill-opacity:1;stroke:#686868;stroke-width:1.762;stroke-linecap:round;stroke-linejoin:round;stroke-dasharray:none;stroke-opacity:1"
           d="m 122.13102,228.4063 c 0.65364,-3.43695 -5.41359,-4.13744 -5.24288,0.31443 0.18287,4.7687 4.85519,2.61412 4.85519,2.61412"
           id="path4-0"
           sodipodi:nodetypes="csc"
           inkscape:label="e2" />
        <rect
           style="fill:#686868;fill-opacity:1;stroke:none;stroke-width:0.174246;stroke-dasharray:none;stroke-opacity:1"
           id="rect4-7-9-2"
           width="1.3191628"
           height="6.2081714"
           x="-229.45233"
           y="116.55144"
           ry="0.65958142"
           transform="matrix(-0.00111841,-0.99999937,0.99999963,-8.6295076e-4,0,0)"
           inkscape:label="e1" />
      </g>
      <g
         id="g6"
         inkscape:label="g">
        <path
           style="fill:none;fill-opacity:1;stroke:#686868;stroke-width:1.762;stroke-linecap:round;stroke-linejoin:round;stroke-dasharray:none;stroke-opacity:1"
           d="m 113.67896,227.55312 c -0.09,-2.38705 -4.62616,-2.30011 -4.76167,-0.29802 -0.10014,1.47944 1.48336,1.93811 2.3692,1.94977 1.83182,0.0241 2.31101,-1.21673 2.31101,-1.21673"
           id="path4-0-1"
           sodipodi:nodetypes="cssc"
           inkscape:label="g3" />
        <path
           style="fill:none;fill-opacity:1;stroke:#686868;stroke-width:1.462;stroke-linecap:round;stroke-linejoin:round;stroke-dasharray:none;stroke-opacity:1"
           d="m 111.60955,229.34751 c -3.021,0.58769 -2.55156,1.19644 -2.53062,1.49557 0.0688,0.98248 1.70204,1.03787 2.58793,1.0311 4.18013,-0.0319 2.67164,3.90211 -0.48939,3.4664 -0.66005,-0.091 -2.84196,-0.0588 -2.64717,-1.71131 0.18166,-1.54107 1.42292,-1.79067 1.42292,-1.79067"
           id="path4-0-1-0"
           sodipodi:nodetypes="cssssc"
           inkscape:label="g2" />
        <rect
           style="fill:#686868;fill-opacity:1;stroke:none;stroke-width:0.154055;stroke-dasharray:none;stroke-opacity:1"
           id="rect4-7-9-8"
           width="1.3191625"
           height="4.8527565"
           x="-226.3062"
           y="110.27563"
           ry="0.65958124"
           transform="matrix(-8.7422831e-4,-0.99999961,0.9999994,-0.00110398,-6.2500001e-7,-2.1666666e-7)"
           inkscape:label="g1" />
      </g>
      <path
         style="fill:none;fill-opacity:1;stroke:#686868;stroke-width:1.762;stroke-linecap:round;stroke-linejoin:round;stroke-dasharray:none;stroke-opacity:1"
         d="m 105.87143,228.43087 c -0.15939,-1.50645 -0.9376,-2.83614 -2.79604,-2.83873 -1.50996,-0.002 -3.07486,0.89183 -2.98901,3.13057 0.0906,2.36176 1.3253,2.96639 2.86894,3.00317 3.05354,0.0727 2.88986,-3.16765 2.88986,-3.16765"
         id="path4-0-8"
         sodipodi:nodetypes="csssc"
         inkscape:label="o" />
      <g
         id="g5"
         inkscape:label="r">
        <path
           style="fill:none;fill-opacity:1;stroke:#686868;stroke-width:1.362;stroke-linecap:round;stroke-linejoin:round;stroke-dasharray:none;stroke-opacity:1"
           d="m 98.065726,225.6277 c -2.802307,-0.11224 -2.876312,3.73687 -2.705602,4.82028"
           id="path4-0-1-1"
           sodipodi:nodetypes="cc"
           inkscape:label="r2" />
        <rect
           style="fill:#686868;fill-opacity:1;stroke:none;stroke-width:0.219285;stroke-dasharray:none;stroke-opacity:1"
           id="rect4-5"
           width="1.7695497"
           height="7.3297653"
           x="94.237198"
           y="225.07166"
           ry="0.77792859"
           inkscape:label="r1" />
      </g>
      <g
         id="g3"
         inkscape:label="t">
        <path
           style="fill:none;fill-opacity:1;stroke:#686868;stroke-width:1.762;stroke-linecap:round;stroke-linejoin:round;stroke-dasharray:none;stroke-opacity:1"
           d="m 90.074025,229.325 c -0.182572,2.62162 0.718469,2.51444 1.77502,2.22013"
           id="path4-0-1-1-1"
           sodipodi:nodetypes="cc"
           inkscape:label="t3" />
        <rect
           style="fill:#686868;fill-opacity:1;stroke:none;stroke-width:0.624811;stroke-dasharray:none;stroke-opacity:1"
           id="rect4-7-9"
           width="1.677938"
           height="4.8527584"
           x="-226.93187"
           y="87.795288"
           ry="0.65958148"
           transform="matrix(-6.8730129e-4,-0.99999976,0.99999901,-0.00140423,0,0)"
           inkscape:label="t2" />
        <rect
           style="fill:#686868;fill-opacity:1;stroke:none;stroke-width:0.231305;stroke-dasharray:none;stroke-opacity:1"
           id="rect4-0"
           width="1.7695497"
           height="8.1553164"
           x="89.185654"
           y="223.35143"
           ry="0.82514727"
           inkscape:label="t1" />
      </g>
      <g
         id="g2"
         inkscape:label="i">
        <rect
           style="fill:#686868;fill-opacity:1;stroke:none;stroke-width:0.125853;stroke-dasharray:none;stroke-opacity:1"
           id="rect4-7-2"
           width="2.1535842"
           height="1.9837936"
           x="84.701363"
           y="221.77405"
           ry="0.86803794"
           inkscape:label="i2" />
        <rect
           style="fill:#686868;fill-opacity:1;stroke:none;stroke-width:0.219066;stroke-dasharray:none;stroke-opacity:1"
           id="rect4-7"
           width="1.7695497"
           height="7.3150949"
           x="84.905441"
           y="225.06812"
           ry="0.82187313"
           inkscape:label="i1" />
      </g>
      <g
         id="g1"
         inkscape:label="N">
        <rect
           style="fill:#686868;fill-opacity:1;stroke:none;stroke-width:0.255591;stroke-dasharray:none;stroke-opacity:1"
           id="rect4-3"
           width="1.7695497"
           height="9.9577923"
           x="80.884193"
           y="222.4236"
           ry="0.84201914"
           inkscape:label="N3" />
        <rect
           style="fill:#686868;fill-opacity:1;stroke:none;stroke-width:0.299112;stroke-dasharray:none;stroke-opacity:1"
           id="rect4-6"
           width="1.7695497"
           height="13.637674"
           x="-61.405243"
           y="225.25589"
           ry="1.1531856"
           transform="rotate(-33.70429)"
           inkscape:label="N2" />
        <rect
           style="fill:#686868;fill-opacity:1;stroke:none;stroke-width:0.87;stroke-dasharray:none;stroke-opacity:1"
           id="rect4"
           width="1.7695497"
           height="11.120896"
           x="74.323387"
           y="221.28635"
           ry="0.94036984"
           inkscape:label="N1" />
      </g>
    </g>
  </g>
</svg>
